<svg width="191" height="31" viewBox="0 0 191 31" fill="none" xmlns="http://www.w3.org/2000/svg">
<path d="M13.2064 30.4167C10.4139 30.4167 8.03504 29.8091 6.06991 28.5938C4.10478 27.3656 2.59862 25.659 1.55141 23.4741C0.517138 21.2892 0 18.7552 0 15.8722C0 12.9891 0.517138 10.4552 1.55141 8.27025C2.59862 6.08534 4.10478 4.38525 6.06991 3.16997C8.03504 1.94177 10.4139 1.32767 13.2064 1.32767C15.986 1.32767 18.3584 1.94177 20.3235 3.16997C22.3016 4.38525 23.8078 6.08534 24.842 8.27025C25.8763 10.4552 26.3934 12.9891 26.3934 15.8722C26.3934 18.7552 25.8763 21.2892 24.842 23.4741C23.8078 25.659 22.3016 27.3656 20.3235 28.5938C18.3584 29.8091 15.986 30.4167 13.2064 30.4167ZM13.2064 26.5575C15.1845 26.5834 16.8264 26.1503 18.1322 25.2582C19.4509 24.3532 20.4399 23.0992 21.0992 21.4961C21.7586 19.88 22.0883 18.0054 22.0883 15.8722C22.0883 13.739 21.7586 11.8773 21.0992 10.2871C20.4399 8.68396 19.4509 7.43636 18.1322 6.5443C16.8264 5.65223 15.1845 5.19974 13.2064 5.18681C11.2284 5.16095 9.57999 5.59406 8.26128 6.48612C6.95551 7.37818 5.97295 8.63224 5.3136 10.2483C4.65424 11.8644 4.3181 13.739 4.30518 15.8722C4.29225 18.0054 4.61546 19.8735 5.27481 21.4767C5.93416 23.0669 6.92319 24.308 8.24189 25.2001C9.57352 26.0921 11.2284 26.5446 13.2064 26.5575Z" fill="#433633"/>
<path d="M36.8552 29.8349V1.90945H40.9083V14.9413L52.6021 1.90945H57.6441L45.291 15.5425L58.5556 29.8349H53.3584L40.9083 16.4927V29.8349H36.8552Z" fill="#433633"/>
<path d="M68.2668 29.8349V1.90945H72.3199V29.8349H68.2668Z" fill="#433633"/>
<path d="M84.7369 29.8349V1.90945H88.8482L102.598 22.6596V1.90945H106.709V29.8349H102.598L88.8482 9.06535V29.8349H84.7369Z" fill="#433633"/>
<path d="M130.37 30.4167C127.578 30.4167 125.199 29.8091 123.234 28.5938C121.268 27.3656 119.762 25.659 118.715 23.4741C117.681 21.2892 117.164 18.7552 117.164 15.8722C117.164 12.9891 117.681 10.4552 118.715 8.27025C119.762 6.08534 121.268 4.38525 123.234 3.16997C125.199 1.94177 127.578 1.32767 130.37 1.32767C133.15 1.32767 135.522 1.94177 137.487 3.16997C139.465 4.38525 140.971 6.08534 142.006 8.27025C143.04 10.4552 143.557 12.9891 143.557 15.8722C143.557 18.7552 143.04 21.2892 142.006 23.4741C140.971 25.659 139.465 27.3656 137.487 28.5938C135.522 29.8091 133.15 30.4167 130.37 30.4167ZM130.37 26.5575C132.348 26.5834 133.99 26.1503 135.296 25.2582C136.614 24.3532 137.604 23.0992 138.263 21.4961C138.922 19.88 139.252 18.0054 139.252 15.8722C139.252 13.739 138.922 11.8773 138.263 10.2871C137.604 8.68396 136.614 7.43636 135.296 6.5443C133.99 5.65223 132.348 5.19974 130.37 5.18681C128.392 5.16095 126.744 5.59406 125.425 6.48612C124.119 7.37818 123.137 8.63224 122.477 10.2483C121.818 11.8644 121.482 13.739 121.469 15.8722C121.456 18.0054 121.779 19.8735 122.438 21.4767C123.098 23.0669 124.087 24.308 125.406 25.2001C126.737 26.0921 128.392 26.5446 130.37 26.5575Z" fill="#433633"/>
<path d="M154.019 29.8349V1.90945H165.305C165.577 1.90945 165.913 1.92238 166.314 1.94823C166.715 1.96116 167.096 1.99995 167.458 2.06459C169.009 2.31023 170.302 2.8403 171.336 3.65479C172.384 4.46928 173.166 5.49709 173.683 6.73822C174.2 7.97936 174.459 9.34977 174.459 10.8495C174.459 13.0732 173.89 14.993 172.752 16.6091C171.614 18.2122 169.908 19.2142 167.632 19.615L165.984 19.8089H158.072V29.8349H154.019ZM170.347 29.8349L164.84 18.4708L168.932 17.4236L174.982 29.8349H170.347ZM158.072 15.9691H165.15C165.409 15.9691 165.693 15.9562 166.003 15.9304C166.327 15.9045 166.631 15.8593 166.915 15.7946C167.742 15.6007 168.408 15.2451 168.912 14.728C169.417 14.1979 169.779 13.5903 169.998 12.9051C170.218 12.2199 170.328 11.5347 170.328 10.8495C170.328 10.1643 170.218 9.48552 169.998 8.81324C169.779 8.12803 169.417 7.52686 168.912 7.00972C168.408 6.47966 167.742 6.11766 166.915 5.92373C166.631 5.84616 166.327 5.79445 166.003 5.76859C165.693 5.74274 165.409 5.72981 165.15 5.72981H158.072V15.9691Z" fill="#433633"/>
<path d="M186.226 29.8349V1.90945H190.279V29.8349H186.226Z" fill="#433633"/>
<path d="M144.712 15.2904C144.712 23.1827 138.314 29.5808 130.422 29.5808C122.53 29.5808 116.132 23.1827 116.132 15.2904C116.132 7.39802 122.53 1 130.422 1C138.314 1 144.712 7.39802 144.712 15.2904Z" fill="#FE654F" stroke="#433633" stroke-width="2"/>
</svg>
