<svg width="322" height="92" viewBox="0 0 322 92" fill="none" xmlns="http://www.w3.org/2000/svg">
<rect x="1" y="1" width="320" height="90" fill="#FAF8F3" stroke="#433633"/>
<path d="M79.2064 61.4167C76.4139 61.4167 74.035 60.8091 72.0699 59.5938C70.1048 58.3656 68.5986 56.659 67.5514 54.4741C66.5171 52.2892 66 49.7552 66 46.8722C66 43.9891 66.5171 41.4552 67.5514 39.2702C68.5986 37.0853 70.1048 35.3852 72.0699 34.17C74.035 32.9418 76.4139 32.3277 79.2064 32.3277C81.986 32.3277 84.3584 32.9418 86.3235 34.17C88.3016 35.3852 89.8078 37.0853 90.842 39.2702C91.8763 41.4552 92.3934 43.9891 92.3934 46.8722C92.3934 49.7552 91.8763 52.2892 90.842 54.4741C89.8078 56.659 88.3016 58.3656 86.3235 59.5938C84.3584 60.8091 81.986 61.4167 79.2064 61.4167ZM79.2064 57.5575C81.1845 57.5834 82.8264 57.1503 84.1322 56.2582C85.4509 55.3532 86.4399 54.0992 87.0992 52.4961C87.7586 50.88 88.0883 49.0054 88.0883 46.8722C88.0883 44.739 87.7586 42.8773 87.0992 41.2871C86.4399 39.684 85.4509 38.4364 84.1322 37.5443C82.8264 36.6522 81.1845 36.1997 79.2064 36.1868C77.2284 36.161 75.58 36.5941 74.2613 37.4861C72.9555 38.3782 71.9729 39.6322 71.3136 41.2483C70.6542 42.8644 70.3181 44.739 70.3052 46.8722C70.2922 49.0054 70.6155 50.8735 71.2748 52.4767C71.9342 54.0669 72.9232 55.308 74.2419 56.2001C75.5735 57.0921 77.2284 57.5446 79.2064 57.5575Z" fill="#433633"/>
<path d="M102.855 60.8349V32.9094H106.908V45.9413L118.602 32.9094H123.644L111.291 46.5425L124.556 60.8349H119.358L106.908 47.4927V60.8349H102.855Z" fill="#433633"/>
<path d="M134.267 60.8349V32.9094H138.32V60.8349H134.267Z" fill="#433633"/>
<path d="M150.737 60.8349V32.9094H154.848L168.598 53.6596V32.9094H172.709V60.8349H168.598L154.848 40.0653V60.8349H150.737Z" fill="#433633"/>
<path d="M196.37 61.4167C193.578 61.4167 191.199 60.8091 189.234 59.5938C187.268 58.3656 185.762 56.659 184.715 54.4741C183.681 52.2892 183.164 49.7552 183.164 46.8722C183.164 43.9891 183.681 41.4552 184.715 39.2702C185.762 37.0853 187.268 35.3852 189.234 34.17C191.199 32.9418 193.578 32.3277 196.37 32.3277C199.15 32.3277 201.522 32.9418 203.487 34.17C205.465 35.3852 206.971 37.0853 208.006 39.2702C209.04 41.4552 209.557 43.9891 209.557 46.8722C209.557 49.7552 209.04 52.2892 208.006 54.4741C206.971 56.659 205.465 58.3656 203.487 59.5938C201.522 60.8091 199.15 61.4167 196.37 61.4167ZM196.37 57.5575C198.348 57.5834 199.99 57.1503 201.296 56.2582C202.614 55.3532 203.604 54.0992 204.263 52.4961C204.922 50.88 205.252 49.0054 205.252 46.8722C205.252 44.739 204.922 42.8773 204.263 41.2871C203.604 39.684 202.614 38.4364 201.296 37.5443C199.99 36.6522 198.348 36.1997 196.37 36.1868C194.392 36.161 192.744 36.5941 191.425 37.4861C190.119 38.3782 189.137 39.6322 188.477 41.2483C187.818 42.8644 187.482 44.739 187.469 46.8722C187.456 49.0054 187.779 50.8735 188.438 52.4767C189.098 54.0669 190.087 55.308 191.406 56.2001C192.737 57.0921 194.392 57.5446 196.37 57.5575Z" fill="#433633"/>
<path d="M220.019 60.8349V32.9094H231.305C231.577 32.9094 231.913 32.9224 232.314 32.9482C232.715 32.9612 233.096 32.9999 233.458 33.0646C235.009 33.3102 236.302 33.8403 237.336 34.6548C238.384 35.4693 239.166 36.4971 239.683 37.7382C240.2 38.9794 240.459 40.3498 240.459 41.8495C240.459 44.0732 239.89 45.993 238.752 47.6091C237.614 49.2122 235.908 50.2142 233.632 50.615L231.984 50.8089H224.072V60.8349H220.019ZM236.347 60.8349L230.84 49.4708L234.932 48.4236L240.982 60.8349H236.347ZM224.072 46.9691H231.15C231.409 46.9691 231.693 46.9562 232.003 46.9304C232.327 46.9045 232.631 46.8593 232.915 46.7946C233.742 46.6007 234.408 46.2451 234.912 45.728C235.417 45.1979 235.779 44.5903 235.998 43.9051C236.218 43.2199 236.328 42.5347 236.328 41.8495C236.328 41.1643 236.218 40.4855 235.998 39.8132C235.779 39.128 235.417 38.5269 234.912 38.0097C234.408 37.4797 233.742 37.1177 232.915 36.9237C232.631 36.8462 232.327 36.7944 232.003 36.7686C231.693 36.7427 231.409 36.7298 231.15 36.7298H224.072V46.9691Z" fill="#433633"/>
<path d="M252.226 60.8349V32.9094H256.279V60.8349H252.226Z" fill="#433633"/>
<path d="M210.712 46.2904C210.712 54.1827 204.314 60.5808 196.422 60.5808C188.53 60.5808 182.132 54.1827 182.132 46.2904C182.132 38.398 188.53 32 196.422 32C204.314 32 210.712 38.398 210.712 46.2904Z" fill="#FE654F" stroke="#433633" stroke-width="2"/>
</svg>
